<?xml version="1.0" standalone="no"?>
<!DOCTYPE svg PUBLIC "-//W3C//DTD SVG 20010904//EN"
 "http://www.w3.org/TR/2001/REC-SVG-20010904/DTD/svg10.dtd">
<svg version="1.0" xmlns="http://www.w3.org/2000/svg"
 width="400.000000pt" height="400.000000pt" viewBox="0 0 400.000000 400.000000"
 preserveAspectRatio="xMidYMid meet">

<g transform="translate(0.000000,400.000000) scale(0.100000,-0.100000)"
fill="#000000" stroke="none">
<path d="M1423 3800 c-110 -29 -185 -85 -199 -149 -4 -14 -13 -37 -21 -50
l-15 -24 59 5 c111 10 197 66 253 163 48 84 44 87 -77 55z"/>
<path d="M2501 3770 c66 -118 156 -181 277 -192 56 -5 59 -3 39 21 -7 9 -19
34 -26 56 -28 85 -123 144 -244 153 l-70 5 24 -43z"/>
<path d="M1952 3671 c-34 -72 -62 -135 -62 -141 0 -5 13 -16 30 -25 39 -20 53
-48 53 -109 1 -92 -41 -147 -108 -140 -40 4 -65 37 -65 85 0 33 5 42 30 58
l30 18 -71 53 c-39 29 -78 60 -87 69 -18 18 -88 73 -109 84 -6 4 15 -53 47
-126 31 -72 74 -170 93 -217 28 -64 41 -85 54 -83 10 1 56 9 103 18 95 19 208
15 300 -10 30 -8 58 -15 61 -15 3 0 25 44 49 98 23 53 67 150 97 216 29 65 52
120 50 123 -3 2 -31 -18 -63 -44 -33 -26 -63 -51 -69 -55 -5 -4 -41 -33 -80
-65 -55 -46 -65 -59 -50 -61 28 -6 55 -32 55 -54 0 -28 -27 -76 -51 -89 -31
-16 -85 -2 -109 28 -15 20 -20 40 -20 89 0 83 12 112 55 130 l34 14 -33 73
c-18 39 -48 103 -67 140 l-35 69 -62 -131z"/>
<path d="M1106 3717 c-70 -70 -86 -105 -86 -194 0 -46 3 -53 20 -53 11 0 37
-9 57 -20 42 -22 92 -25 138 -7 44 18 115 59 115 69 0 15 -112 40 -166 36 -30
-1 -54 -2 -54 -2 0 1 12 27 26 58 29 63 43 159 25 170 -6 4 -38 -21 -75 -57z
m-26 -212 c-7 -8 -19 -15 -27 -15 -13 0 -13 3 -3 15 7 8 19 15 27 15 13 0 13
-3 3 -15z"/>
<path d="M2825 3733 c10 -77 23 -118 49 -155 l23 -35 -66 4 c-48 3 -81 -1
-121 -15 l-55 -19 44 -28 c98 -61 132 -65 239 -28 l54 18 -4 76 c-6 96 -38
157 -106 200 -25 16 -50 29 -55 29 -5 0 -6 -20 -2 -47z m145 -228 c16 -19 3
-19 -30 0 -24 13 -24 14 -4 15 12 0 27 -7 34 -15z"/>
<path d="M940 3597 c-86 -84 -98 -115 -84 -224 6 -45 10 -53 28 -53 11 -1 32
-7 46 -15 55 -31 143 -10 223 53 l38 30 -34 11 c-19 6 -71 12 -115 12 -79 1
-91 4 -74 25 25 28 44 185 24 198 -5 3 -28 -14 -52 -37z m-28 -232 c0 -14 -29
-31 -38 -22 -9 8 16 39 28 35 5 -2 10 -8 10 -13z"/>
<path d="M3012 3569 c3 -43 13 -93 25 -120 l21 -46 -42 9 c-55 13 -186 -9
-186 -31 0 -12 143 -81 182 -88 28 -4 52 1 92 18 49 21 56 28 61 59 9 52 -12
140 -43 185 -15 22 -47 51 -71 64 l-44 24 5 -74z m126 -217 c3 -9 -2 -13 -14
-10 -9 1 -19 9 -22 16 -3 9 2 13 14 10 9 -1 19 -9 22 -16z"/>
<path d="M747 3421 c-60 -78 -69 -131 -40 -224 13 -43 21 -55 37 -55 12 0 42
-4 68 -8 40 -5 56 -2 102 20 56 27 106 76 106 102 0 19 -120 18 -175 -1 -21
-8 -41 -13 -42 -11 -2 2 1 15 7 30 20 54 8 196 -18 196 -4 0 -25 -22 -45 -49z
m19 -248 c-10 -10 -19 5 -10 18 6 11 8 11 12 0 2 -7 1 -15 -2 -18z"/>
<path d="M3196 3433 c-9 -59 -6 -125 8 -164 l13 -37 -41 19 c-55 25 -186 24
-186 -1 0 -17 72 -79 116 -99 39 -19 58 -22 99 -17 71 9 69 9 84 5 32 -9 44
159 16 228 -15 37 -76 103 -95 103 -4 0 -10 -17 -14 -37z m68 -239 c9 -3 16
-12 16 -20 0 -17 -12 -18 -28 -2 -22 22 -16 33 12 22z"/>
<path d="M614 3252 c-18 -26 -37 -57 -43 -70 -20 -37 -15 -112 11 -172 l23
-55 70 0 c65 0 75 3 133 40 34 22 62 44 62 48 0 5 7 16 16 24 14 15 14 17 -1
26 -26 14 -126 2 -172 -21 l-40 -21 5 74 c5 81 -2 133 -21 158 -11 14 -16 11
-43 -31z m32 -248 c-3 -9 -6 -18 -6 -20 0 -2 -7 -4 -15 -4 -18 0 -19 12 -3 28
17 17 31 15 24 -4z"/>
<path d="M3348 3274 c-7 -16 -13 -69 -13 -122 0 -50 -2 -92 -5 -92 -3 0 -16 7
-29 16 -26 19 -141 31 -165 17 -14 -8 -13 -12 8 -44 13 -19 43 -48 67 -64 38
-27 50 -30 118 -30 75 0 76 0 88 30 51 133 49 119 30 177 -9 29 -33 73 -52 97
l-35 43 -12 -28z m52 -286 c0 -17 -3 -18 -15 -8 -8 7 -15 19 -15 26 0 8 6 11
15 8 8 -4 15 -15 15 -26z"/>
<path d="M1275 3198 c-60 -34 -227 -211 -300 -318 -79 -118 -139 -255 -177
-410 -9 -37 -13 -119 -12 -250 0 -167 3 -206 21 -272 61 -218 156 -369 371
-589 45 -46 72 -82 67 -89 -11 -18 -57 -8 -87 19 -31 28 -32 27 -45 -13 -14
-44 -29 -42 -37 5 -8 50 -35 104 -71 143 -26 28 -28 29 -41 12 -20 -28 -28
-101 -16 -148 6 -23 10 -44 8 -45 -2 -2 -20 4 -41 13 -47 19 -174 29 -195 15
-12 -9 -10 -15 18 -44 17 -18 32 -38 32 -43 0 -6 -29 -17 -65 -24 -36 -7 -65
-15 -65 -16 0 -1 12 -46 26 -99 14 -53 24 -98 22 -99 -2 -1 -59 -17 -128 -36
-242 -64 -559 -176 -543 -190 4 -4 62 -36 128 -70 180 -95 198 -107 191 -133
-17 -60 -86 -323 -86 -329 0 -3 37 9 83 27 132 54 367 123 576 171 106 24 195
45 197 47 2 1 -3 30 -10 62 -8 33 -17 76 -20 96 l-6 36 52 11 c94 20 280 50
428 68 183 23 721 26 870 6 211 -30 482 -81 496 -94 2 -2 -5 -44 -15 -93 -19
-94 -17 -105 24 -105 82 0 686 -174 784 -225 17 -8 31 -12 31 -8 -1 21 -30
140 -60 246 -18 64 -31 118 -29 120 2 1 42 21 89 44 47 24 122 62 167 86 l81
43 -339 114 c-213 72 -339 119 -339 127 0 7 9 46 20 85 11 40 20 78 20 84 0 6
-25 16 -55 23 -65 15 -73 23 -40 45 34 23 51 56 34 67 -24 15 -105 10 -171
-11 -34 -11 -64 -20 -65 -20 -1 0 2 12 7 26 15 39 12 131 -5 165 l-16 30 -24
-29 c-26 -31 -85 -149 -85 -169 0 -18 -20 -16 -25 2 -3 8 -7 22 -10 31 -4 13
-10 11 -38 -10 -21 -16 -47 -26 -67 -26 -33 0 -32 1 87 123 180 184 258 299
314 463 41 122 59 236 59 383 0 274 -76 502 -241 721 -103 137 -252 259 -315
260 -41 0 -74 -36 -74 -82 0 -55 24 -70 108 -67 65 2 73 0 111 -30 57 -45 167
-166 214 -235 57 -84 111 -207 138 -311 20 -77 23 -116 23 -270 1 -229 -22
-340 -101 -483 -42 -76 -53 -76 -19 -1 31 68 63 225 71 354 12 171 -23 378
-87 527 -23 53 -68 98 -99 98 -28 0 -69 -44 -69 -73 0 -31 20 -48 78 -67 40
-13 49 -22 74 -70 107 -212 86 -577 -49 -845 -70 -139 -203 -312 -268 -350
-51 -30 -113 -32 -288 -7 l-119 17 59 64 c221 242 361 542 407 868 13 89 36
440 36 542 0 31 -10 35 -200 66 -185 31 -401 104 -590 200 l-47 24 -60 -28
c-239 -113 -376 -161 -551 -191 -64 -11 -143 -26 -176 -32 l-59 -11 7 -146 c4
-80 11 -211 17 -291 26 -376 168 -718 409 -990 30 -34 57 -66 58 -71 2 -5 -11
-9 -30 -9 -18 0 -94 -7 -168 -16 l-135 -16 -92 97 c-153 159 -238 305 -291
494 -25 89 -27 110 -26 286 0 214 10 260 80 363 30 42 42 52 65 52 34 0 69 34
69 67 0 29 -45 73 -75 73 -98 0 -201 -355 -180 -625 7 -103 39 -272 61 -323 8
-19 12 -37 10 -40 -6 -5 -50 91 -77 168 -83 233 -68 531 36 757 76 164 242
376 320 409 28 11 43 12 85 2 46 -10 53 -10 78 9 22 17 27 28 26 64 -1 31 -7
47 -24 61 -25 20 -75 23 -105 6z m1070 -347 c66 -21 191 -51 278 -67 143 -25
157 -30 157 -48 0 -78 -22 -425 -30 -487 -26 -190 -92 -392 -178 -544 -101
-178 -283 -385 -337 -385 -18 0 -23 4 -19 15 4 8 9 15 13 15 13 0 159 154 205
215 64 87 141 226 176 319 75 194 103 378 112 721 l3 119 -129 23 c-211 37
-319 71 -507 162 l-86 41 -94 -44 c-205 -95 -320 -132 -514 -162 -60 -9 -113
-20 -116 -23 -9 -8 8 -374 21 -481 41 -325 189 -625 412 -834 85 -81 89 -86
61 -86 -23 0 -45 16 -101 71 -185 182 -314 412 -383 687 -35 138 -46 232 -55
489 l-7 192 34 5 c180 30 278 49 351 70 81 24 267 99 352 143 l39 20 111 -53
c61 -29 165 -71 231 -93z m-657 -490 c-10 -17 -6 -28 24 -77 20 -32 40 -60 46
-62 15 -5 94 119 89 140 -5 16 2 18 51 18 53 0 55 -1 35 -15 -11 -8 -49 -54
-83 -101 -54 -76 -60 -90 -50 -108 40 -75 189 -283 210 -293 22 -11 10 -13
-85 -12 -76 0 -103 3 -87 9 13 6 22 18 22 31 0 27 -120 213 -131 202 -22 -24
-110 -170 -116 -191 -4 -18 -1 -29 12 -39 16 -11 9 -13 -59 -13 l-79 0 27 21
c20 16 147 187 190 257 9 15 -112 201 -151 232 l-26 20 87 0 c83 0 86 -1 74
-19z m519 1 c-15 -16 -17 -48 -17 -243 0 -230 3 -249 40 -262 8 -3 -30 -5 -85
-5 -55 0 -93 2 -85 5 37 13 40 32 40 258 0 183 -3 224 -16 243 l-15 22 77 0
c74 0 76 -1 61 -18z m243 -2 c-19 -19 -20 -33 -20 -240 l0 -221 25 -24 24 -25
-91 0 -90 0 23 19 c24 19 24 23 27 218 3 212 0 254 -24 278 -14 13 -7 15 65
15 l81 0 -20 -20z m-585 -1217 c0 -63 2 -68 23 -71 29 -4 40 25 32 89 -6 48
-6 49 19 48 14 0 20 -3 14 -6 -8 -3 -13 -25 -13 -62 0 -65 -11 -81 -56 -81
-39 0 -42 4 -49 66 -3 27 -8 57 -11 67 -4 13 0 17 18 17 22 0 23 -4 23 -67z
m179 10 l36 -57 0 51 c0 32 -5 53 -12 56 -7 3 0 6 17 6 22 1 26 -2 17 -11 -7
-7 -12 -39 -12 -75 0 -35 -4 -63 -8 -63 -4 0 -23 26 -42 57 l-35 58 -3 -43
c-2 -24 2 -50 9 -58 9 -12 7 -14 -17 -14 -22 0 -25 3 -16 12 7 7 12 35 12 63
0 28 -5 56 -12 63 -9 9 -7 12 9 12 15 0 32 -17 57 -57z m176 -3 c7 -25 20 -57
27 -72 14 -28 8 -33 -21 -22 -9 3 -13 10 -10 15 8 14 -16 39 -38 39 -23 0 -36
-29 -17 -41 10 -6 3 -9 -21 -9 -19 0 -30 4 -24 8 7 4 26 38 43 76 17 39 35 65
39 60 5 -5 15 -29 22 -54z m-578 -27 c34 -73 34 -73 11 -73 -14 0 -21 5 -18
13 8 22 -9 35 -38 30 -24 -5 -28 -9 -23 -29 5 -19 2 -24 -12 -24 -18 0 -18 3
4 70 22 69 33 94 39 88 1 -2 18 -36 37 -75z m146 49 c2 -13 -2 -30 -9 -38 -9
-11 -8 -19 7 -37 11 -12 24 -25 29 -29 6 -4 0 -8 -12 -8 -14 0 -28 11 -40 30
-9 17 -21 30 -25 30 -13 0 -9 -45 4 -58 9 -9 5 -12 -21 -12 -28 0 -32 2 -21
15 15 18 5 115 -13 127 -7 5 13 7 43 6 49 -3 55 -6 58 -26z m630 22 c14 -4 22
-14 22 -28 -1 -19 -2 -19 -11 -3 -5 9 -17 17 -25 17 -13 0 -15 -12 -12 -65 l3
-65 -30 0 c-18 0 -25 3 -18 8 7 4 15 33 19 65 5 46 4 57 -8 57 -8 0 -19 -5
-26 -12 -9 -9 -12 -7 -12 10 0 19 5 22 38 22 20 0 47 -3 60 -6z m-894 -20 c4
-9 3 -20 0 -23 -4 -3 -9 0 -11 7 -3 6 -12 12 -20 12 -13 0 -15 -10 -11 -56 3
-33 11 -60 19 -65 8 -5 10 -9 4 -9 -5 0 -19 -3 -30 -6 -19 -5 -20 -1 -17 53 3
70 -11 98 -33 69 -15 -19 -15 -19 -15 2 0 17 7 21 43 25 23 2 47 4 53 5 7 1
15 -5 18 -14z m1016 -26 c24 -92 32 -109 48 -106 21 4 35 105 18 127 -9 11 -3
12 34 6 40 -6 70 -26 70 -46 0 -4 -7 -15 -16 -24 -16 -15 -16 -19 -1 -51 15
-30 15 -34 2 -34 -9 0 -23 16 -32 35 -20 43 -37 46 -31 5 l5 -30 -53 0 c-29 0
-56 5 -59 10 -3 6 -1 10 4 10 6 0 11 6 11 14 0 14 -21 26 -45 26 -18 0 -28
-32 -13 -42 9 -5 3 -8 -15 -8 -16 0 -27 3 -25 8 30 64 74 142 80 142 4 0 12
-19 18 -42z m-1215 11 c10 -15 -3 -25 -16 -12 -6 6 -18 9 -25 6 -25 -9 -15
-34 21 -49 55 -23 59 -66 8 -85 -23 -8 -64 14 -50 27 4 5 12 2 16 -5 11 -17
45 -10 49 9 1 9 -13 23 -35 35 -40 21 -52 47 -33 70 14 17 56 20 65 4z m-103
-12 c-15 -17 0 -116 19 -128 11 -7 11 -9 -3 -9 -9 0 -22 -2 -30 -5 -10 -4 -13
11 -15 62 -1 42 -6 69 -13 71 -17 6 8 22 34 22 14 0 16 -3 8 -13z m1568 4 c0
-5 -4 -11 -9 -13 -6 -1 -13 -27 -17 -55 -6 -45 -4 -54 11 -59 10 -4 25 -3 34
3 21 13 35 104 18 115 -8 5 -4 8 10 8 12 0 25 -4 28 -10 3 -5 2 -10 -3 -10 -5
0 -13 -25 -17 -56 -8 -65 -30 -83 -79 -64 -29 10 -29 11 -23 75 4 45 3 65 -6
69 -7 2 3 5 21 5 17 1 32 -3 32 -8z m-1646 -26 c7 -18 2 -19 -24 -2 -17 10
-22 9 -30 -3 -11 -18 3 -36 36 -44 33 -9 47 -45 26 -68 -18 -21 -55 -23 -71
-5 -16 20 -2 29 16 11 19 -19 37 -13 41 13 2 16 -5 24 -32 33 -39 12 -51 33
-36 61 13 23 65 26 74 4z m1805 -47 l28 -61 7 37 c4 20 4 45 1 55 -4 15 -1 17
19 14 21 -4 23 -7 12 -19 -8 -7 -17 -38 -21 -68 -3 -31 -11 -56 -16 -56 -6 0
-23 28 -38 63 l-28 62 -7 -49 c-6 -36 -4 -51 6 -57 8 -6 1 -9 -21 -9 -33 0
-33 1 -17 18 10 12 17 39 19 75 3 76 21 74 56 -5z m-1926 24 c47 -52 24 -132
-38 -132 -40 0 -66 30 -67 79 -2 60 67 95 105 53z m2072 -2 c3 -5 2 -10 -4
-10 -5 0 -15 -25 -21 -56 -10 -46 -9 -58 2 -65 9 -6 5 -9 -14 -9 -15 0 -30 5
-33 10 -3 6 -2 10 3 10 14 0 32 114 18 122 -6 4 1 8 16 8 15 0 30 -4 33 -10z
m-1049 -112 c5 -8 2 -9 -9 -5 -14 5 -17 0 -17 -28 0 -19 -4 -35 -8 -35 -4 0
-6 16 -4 37 4 31 2 35 -12 30 -10 -4 -15 -3 -11 3 9 14 52 13 61 -2z m-250
-13 c-3 -8 -1 -15 5 -15 5 0 12 7 15 15 4 8 10 15 15 15 5 0 4 -9 -3 -19 -10
-17 -9 -23 6 -40 23 -26 10 -28 -17 -3 -19 16 -20 16 -14 0 4 -12 1 -18 -7
-18 -9 0 -15 15 -18 40 -3 29 0 40 10 40 8 0 12 -6 8 -15z m137 -20 c10 -20
12 -37 7 -40 -6 -3 -10 1 -10 10 0 10 -6 15 -17 13 -10 -2 -17 -10 -15 -16 1
-7 -3 -12 -9 -12 -6 0 -8 7 -5 16 3 9 9 27 12 40 8 33 17 30 37 -11z m200 -7
c14 -33 14 -38 1 -38 -7 0 -14 7 -14 15 0 21 -30 19 -31 -2 0 -10 -3 -13 -5
-6 -5 11 24 78 31 71 1 -1 10 -20 18 -40z m91 15 l15 -28 1 28 c0 15 3 27 8
27 4 0 6 -18 4 -40 -2 -22 -8 -40 -13 -40 -5 0 -9 4 -9 8 0 5 -7 17 -16 28
-15 18 -15 18 -11 -8 3 -17 0 -28 -7 -28 -7 0 -10 15 -8 40 5 47 16 51 36 13z
m-494 8 c0 -5 -8 -7 -19 -4 -10 3 -22 0 -26 -6 -10 -17 4 -51 22 -51 9 0 13 6
9 15 -3 9 0 15 10 15 12 0 12 -4 4 -20 -12 -23 -30 -26 -48 -8 -13 13 -16 50
-5 61 10 10 53 8 53 -2z m665 -12 c3 6 11 11 18 11 7 0 5 -7 -5 -16 -12 -13
-14 -23 -7 -40 5 -15 5 -24 -1 -24 -6 0 -10 7 -10 15 0 8 -4 15 -10 15 -5 0
-10 -4 -10 -10 0 -5 -5 -10 -11 -10 -8 0 -8 5 1 15 7 9 10 26 6 42 -6 26 -5
26 8 10 9 -12 16 -14 21 -8z m-773 -24 c5 -41 2 -42 -30 -12 l-24 22 6 -30 c5
-29 5 -29 -6 3 -14 42 -2 54 24 22 l21 -25 -5 28 c-3 15 -2 27 2 27 4 0 10
-16 12 -35z m852 -12 c-7 -39 -11 -49 -18 -42 -7 8 7 79 16 79 5 0 6 -16 2
-37z m-989 5 c-4 -16 -3 -19 3 -10 7 10 13 8 25 -11 14 -22 14 -26 2 -31 -9
-3 -15 1 -15 9 0 8 -7 15 -16 15 -10 0 -14 -6 -10 -15 3 -8 0 -15 -5 -15 -7 0
-9 9 -5 23 3 12 6 30 6 40 0 9 5 17 11 17 6 0 8 -9 4 -22z m1061 6 c-3 -9 -6
-27 -6 -40 0 -15 -6 -24 -15 -24 -12 0 -13 4 -5 19 5 11 10 29 10 40 0 12 5
21 11 21 6 0 8 -7 5 -16z"/>
<path d="M2176 1154 c-10 -26 -7 -34 13 -34 14 0 18 5 14 20 -7 27 -20 34 -27
14z"/>
<path d="M1588 1137 c-4 -21 -1 -27 13 -27 22 0 24 10 5 35 -12 17 -13 17 -18
-8z"/>
<path d="M1730 1160 c0 -25 4 -31 18 -28 11 2 17 12 17 28 0 16 -6 26 -17 28
-14 3 -18 -3 -18 -28z"/>
<path d="M2640 1130 c0 -25 4 -31 18 -28 11 2 17 12 17 28 0 16 -6 26 -17 28
-14 3 -18 -3 -18 -28z"/>
<path d="M2502 1133 c-16 -29 -15 -33 8 -33 22 0 23 4 11 35 -8 19 -8 19 -19
-2z"/>
<path d="M958 1099 c-43 -25 -6 -129 40 -115 18 6 22 15 22 50 0 29 -6 48 -18
59 -21 20 -21 20 -44 6z"/>
<path d="M3480 3044 c-22 -39 -50 -133 -50 -172 l0 -23 -37 29 c-39 29 -83 47
-141 57 l-32 5 15 -36 c20 -49 71 -112 106 -129 15 -8 48 -15 73 -15 32 0 48
-5 54 -17 8 -14 11 -13 17 8 4 13 24 47 43 76 28 43 35 63 35 105 1 50 -28
127 -52 142 -5 3 -19 -10 -31 -30z m0 -271 c0 -24 -25 -9 -28 17 -3 21 -2 22
12 11 9 -7 16 -20 16 -28z"/>
<path d="M477 3032 c-20 -49 -31 -125 -23 -156 3 -13 22 -43 41 -66 19 -23 35
-49 35 -58 0 -17 14 -7 16 11 0 7 2 20 2 30 1 9 7 17 13 17 7 0 9 -10 5 -25
-6 -24 -4 -25 34 -25 49 0 86 18 122 59 27 30 68 98 68 113 0 20 -118 -10
-150 -37 -8 -7 -25 -16 -36 -19 -20 -6 -23 -1 -32 53 -12 68 -46 141 -66 141
-8 0 -21 -17 -29 -38z"/>
<path d="M395 2818 c-29 -100 -18 -164 41 -225 24 -25 44 -50 44 -56 0 -8 4
-7 12 1 7 7 26 12 42 12 51 1 112 35 139 78 25 39 50 112 42 120 -10 10 -129
-43 -158 -70 -39 -34 -47 -35 -47 -3 0 49 -69 195 -92 195 -4 0 -14 -23 -23
-52z m111 -234 c-3 -9 -6 -18 -6 -20 0 -2 -4 -4 -9 -4 -5 0 -7 9 -4 20 3 11
10 20 15 20 6 0 7 -7 4 -16z"/>
<path d="M3566 2840 c-35 -43 -55 -92 -58 -146 -2 -24 -5 -44 -7 -44 -2 0 -20
12 -40 28 -42 32 -93 56 -139 66 -37 9 -37 10 -16 -39 24 -59 64 -114 98 -134
33 -19 136 -36 136 -22 0 5 19 27 42 49 37 36 42 47 46 96 5 66 -4 137 -22
161 -11 16 -14 15 -40 -15z m-26 -271 c0 -5 -7 -9 -15 -9 -9 0 -15 9 -15 21 0
18 2 19 15 9 8 -7 15 -16 15 -21z"/>
<path d="M336 2614 c-13 -34 -6 -126 13 -167 11 -23 42 -64 70 -91 48 -47 51
-49 69 -33 10 9 27 17 37 17 24 0 81 39 95 65 12 24 50 135 50 147 0 32 -123
-31 -157 -81 -30 -44 -43 -51 -43 -23 -1 67 -117 211 -134 166z m146 -276
c-15 -15 -27 14 -17 40 6 15 8 15 18 -6 7 -16 7 -26 -1 -34z"/>
<path d="M3617 2581 c-21 -27 -51 -73 -66 -101 -28 -51 -29 -52 -41 -29 -28
51 -97 99 -143 99 -25 0 -27 -3 -21 -22 30 -99 91 -188 127 -188 12 0 36 -9
54 -19 l31 -20 52 55 c58 61 80 106 80 161 0 44 -17 113 -28 113 -5 0 -25 -22
-45 -49z m-63 -217 c9 -22 8 -24 -9 -24 -8 0 -15 9 -15 20 0 24 15 27 24 4z"/>
<path d="M317 2388 c-27 -98 31 -225 116 -257 24 -9 27 -8 27 9 0 24 16 35 24
15 7 -18 -3 -45 -16 -45 -5 0 -6 -5 -3 -11 5 -7 12 -5 23 5 10 8 29 18 45 21
53 14 117 125 117 206 l0 29 -48 -24 c-45 -23 -92 -67 -118 -112 -10 -17 -14
-14 -33 32 -13 29 -45 73 -75 103 -51 50 -54 52 -59 29z"/>
<path d="M3632 2356 c-29 -31 -62 -76 -73 -101 -11 -25 -22 -45 -24 -45 -3 0
-13 17 -24 38 -20 39 -73 82 -125 102 -28 10 -29 10 -22 -22 25 -127 72 -196
147 -213 24 -6 25 -5 21 27 -4 32 -4 32 14 15 16 -14 17 -21 6 -37 -14 -22
-16 -40 -4 -40 4 0 31 21 60 46 70 61 92 106 91 186 -1 105 -6 108 -67 44z"/>
<path d="M598 2131 c-34 -39 -60 -85 -73 -125 -5 -17 -11 -14 -48 27 -23 25
-68 62 -99 82 l-58 36 0 -38 c0 -42 29 -112 57 -142 21 -22 111 -78 133 -83 8
-2 18 -7 22 -13 5 -6 13 -2 22 11 9 12 28 26 43 33 16 6 35 26 43 44 18 39 21
198 4 204 -7 2 -27 -14 -46 -36z m-48 -223 c0 -30 -25 -15 -28 17 -3 25 -2 27
12 16 9 -8 16 -22 16 -33z"/>
<path d="M3354 2144 c-18 -71 15 -207 54 -221 9 -3 29 -17 43 -30 l26 -24 54
31 c88 52 120 80 140 124 20 45 25 116 8 116 -20 0 -128 -81 -155 -116 l-28
-36 -21 49 c-24 52 -66 108 -96 123 -15 9 -20 6 -25 -16z m139 -231 c-3 -7 -9
-13 -14 -13 -11 0 -12 34 -2 43 9 10 22 -13 16 -30z"/>
<path d="M666 1946 c-33 -44 -76 -128 -76 -150 0 -9 -1 -16 -3 -16 -2 0 -24
20 -50 45 -43 41 -132 95 -156 95 -16 0 -2 -60 25 -107 31 -54 79 -93 151
-121 l58 -23 50 46 50 46 -2 100 c0 56 -5 105 -11 111 -5 5 -19 -4 -36 -26z
m-48 -235 c3 -16 -1 -22 -10 -19 -7 3 -15 15 -16 27 -3 16 1 22 10 19 7 -3 15
-15 16 -27z"/>
<path d="M3295 1920 c-13 -93 7 -157 69 -222 35 -37 36 -37 74 -24 77 27 122
57 149 97 25 37 58 137 49 147 -13 12 -103 -37 -156 -85 -33 -30 -60 -49 -60
-41 0 38 -25 90 -61 132 -22 25 -44 46 -49 46 -4 0 -11 -22 -15 -50z m125
-204 c0 -16 -18 -31 -27 -22 -8 8 5 36 17 36 5 0 10 -6 10 -14z"/>
<path d="M743 1768 c-30 -32 -46 -74 -52 -141 l-6 -57 -26 24 c-14 13 -41 32
-59 41 -42 22 -142 56 -147 51 -3 -2 7 -29 22 -60 42 -89 104 -128 238 -151
30 -5 37 -3 37 11 0 9 11 29 25 46 14 16 28 42 32 56 7 28 -20 179 -35 194 -4
4 -18 -2 -29 -14z m-14 -247 c10 -18 6 -31 -10 -31 -3 0 -9 11 -11 25 -6 29 7
33 21 6z"/>
<path d="M3226 1744 c-22 -64 -21 -172 1 -204 29 -43 53 -54 111 -51 70 3 92
12 139 55 37 33 92 130 81 141 -9 9 -129 -34 -170 -61 -55 -35 -59 -34 -62 17
-4 52 -23 94 -59 127 l-25 23 -16 -47z m75 -237 c-8 -8 -11 -7 -11 4 0 20 13
34 18 19 3 -7 -1 -17 -7 -23z"/>
<path d="M834 1558 c-18 -36 -27 -70 -28 -105 0 -29 -1 -53 -3 -53 -1 0 -24
14 -50 30 -26 17 -63 35 -83 40 -39 11 -110 13 -110 4 0 -4 23 -37 50 -75 54
-72 53 -72 175 -89 93 -13 95 -13 95 8 0 10 12 29 26 43 24 22 26 28 20 83 -5
53 -46 166 -60 166 -3 0 -18 -24 -32 -52z m14 -210 c16 -16 15 -28 -3 -28 -8
0 -15 2 -15 4 0 2 -3 11 -6 20 -7 19 7 21 24 4z"/>
<path d="M3136 1592 c-46 -52 -60 -172 -26 -232 10 -19 22 -43 26 -52 7 -21
16 -22 85 -7 71 15 137 46 167 78 28 29 62 82 62 95 0 19 -102 -3 -167 -35
-38 -19 -70 -35 -73 -37 -3 -1 -4 19 -2 45 2 36 -4 63 -25 106 -28 58 -28 59
-47 39z m54 -246 c0 -16 -18 -31 -27 -22 -8 8 5 36 17 36 5 0 10 -6 10 -14z"/>
</g>
</svg>
